HIERARCHY
ROOT Hips
{
  OFFSET 23.0736 105.496 174.749
  CHANNELS 6 Xposition Yposition Zposition Zrotation Xrotation Yrotation
  JOINT RightUpLeg
  {
    OFFSET -8.9458 -8.66707 0.101652
    CHANNELS 3 Zrotation Xrotation Yrotation
    JOINT RightLeg
    {
      OFFSET 0 -44.4227 1.3727
      CHANNELS 3 Zrotation Xrotation Yrotation
      JOINT RightFoot
      {
        OFFSET 0.253549 -42.0924 -1.46059
        CHANNELS 3 Zrotation Xrotation Yrotation
        JOINT RightToes
        {
          OFFSET 0.04 -4.41509 8.4991
          CHANNELS 3 Zrotation Xrotation Yrotation
          End Site
          {
            OFFSET -0.08 -0.137448 9.77979
          }
        }
      }
    }
  }
  JOINT Spine
  {
    OFFSET 0 11.8905 0
    CHANNELS 3 Zrotation Xrotation Yrotation
    JOINT Spine1
    {
      OFFSET 0 25.6574 0.127663
      CHANNELS 3 Zrotation Xrotation Yrotation
      JOINT HEad
      {
        OFFSET 0 8.73416 0.011341
        CHANNELS 3 Zrotation Xrotation Yrotation
        End Site
        {
          OFFSET -0.29 12.7742 2.51395
        }
      }
      JOINT LeftShoulder1
      {
        OFFSET 8.99 -0.362252 -0.22
        CHANNELS 3 Zrotation Xrotation Yrotation
        JOINT LeftArm
        {
          OFFSET 10.2827 -0.00338 0.322123
          CHANNELS 3 Zrotation Xrotation Yrotation
          JOINT LeftForeArm
          {
            OFFSET 32.7669 0.099144 -1.42434
            CHANNELS 3 Zrotation Xrotation Yrotation
            JOINT LeftHand
            {
              OFFSET 27.5643 0.085362 1.02216
              CHANNELS 3 Zrotation Xrotation Yrotation
              End Site
              {
                OFFSET 16.7443 -0.6 1.50291
              }
            }
          }
        }
      }
      JOINT RightShoulder
      {
        OFFSET -8.99 -0.362252 -0.22
        CHANNELS 3 Zrotation Xrotation Yrotation
        JOINT RightArm
        {
          OFFSET -10.2827 -0.00338 0.322123
          CHANNELS 3 Zrotation Xrotation Yrotation
          JOINT RightForeArm
          {
            OFFSET -32.8971 0.099144 -1.42434
            CHANNELS 3 Zrotation Xrotation Yrotation
            JOINT RightHand
            {
              OFFSET -27.4921 0.085362 1.02216
              CHANNELS 3 Zrotation Xrotation Yrotation
              End Site
              {
                OFFSET -16.6312 -0.6 1.50291
              }
            }
          }
        }
      }
    }
  }
  JOINT LeftUpLeg
  {
    OFFSET 8.9458 -8.66707 0.101652
    CHANNELS 3 Zrotation Xrotation Yrotation
    JOINT LeftLeg
    {
      OFFSET 0 -44.4227 1.3727
      CHANNELS 3 Zrotation Xrotation Yrotation
      JOINT LeftFoot
      {
        OFFSET -0.253549 -42.0924 -1.46059
        CHANNELS 3 Zrotation Xrotation Yrotation
        JOINT LeftToes
        {
          OFFSET -0.04 -4.41509 8.4991
          CHANNELS 3 Zrotation Xrotation Yrotation
          End Site
          {
            OFFSET 0.08 -0.047448 9.77979
          }
        }
      }
    }
  }
}
MOTION
Frames:	16
Frame Time:	0.0166667
20.9365 105.165 183.255 -4.21665 0.0196818 179.168 -0.924569 -22.296 1.59903 2.40196 25.1849 -18.2884 1.54068 -7.15737 -0.16141 0.0462048 0.000533964 0.662642 -0.416795 3.6471 -1.53612 -8.80277 3.62321 0.458726 5.18167 -1.11071 -3.88766 5.96354e-016 0 -0 -84.9445 -24.669 -28.0001 -18.0626 16.0768 -23.9253 0.368473 9.90896 -0.00117926 5.56116 -0.415572 -6.61339 84.553 -32.62 5.38712 19.7776 14.1398 12.1728 -0.369625 9.91382 0.00119887 -5.00782 3.68232 -0.597444 -1.51604 33.7059 18.0488 -13.766 -3.94393 -0.011474 -3.15511e-012 2.5613e-011 7.38207e-012 
21.3003 105.333 181.671 -3.70492 0.124478 178.726 -0.113043 -21.0521 1.03601 2.18375 25.0395 -17.2859 1.42515 -8.03081 -0.156112 0.197174 0.0661762 0.941569 -0.374277 3.685 -1.35931 -7.82232 3.64471 0.402802 4.51847 -1.02749 -3.26779 -4.96962e-016 0 1.98785e-016 -84.9969 -25.6686 -26.1472 -18.1908 16.161 -24.4088 0.368473 9.90896 -0.00117926 4.91169 -0.386913 -6.52633 85.2822 -32.6884 6.04164 19.4394 14.146 12.2184 -0.369625 9.91382 0.00119887 -4.08863 2.60295 0.193026 -1.7035 36.8732 18.3622 -13.4849 -2.37773 0.172911 0.213766 3.04464 -0.201494 
21.6632 105.473 180.128 -3.21103 0.192366 178.373 0.676196 -19.9033 0.75163 2.10887 24.9341 -16.6564 1.3276 -8.85246 -0.152152 0.345261 0.0193444 1.23305 -0.256749 3.72688 -1.21629 -6.95888 3.69244 0.357619 3.99073 -1.03407 -2.70443 6.95746e-016 -1.59028e-015 3.97569e-016 -84.9321 -26.5652 -24.3609 -18.3273 16.2208 -24.7308 0.368473 9.90896 -0.00117926 4.39187 -0.365266 -6.46708 85.9198 -32.7039 6.67812 19.1544 14.1694 12.3645 -0.369625 9.91382 0.00119887 -3.17985 1.34633 1.0241 -1.81141 40.1025 18.6628 -13.1567 -0.815164 0.349014 0.43253 5.72177 -0.332648 
22.0252 105.541 178.695 -2.75052 0.149465 178.259 1.3484 -19.0223 1.32372 2.45879 24.934 -17.1968 1.27077 -9.49239 -0.15338 0.533177 -0.353372 1.64588 0.0999688 3.78808 -1.16964 -6.40681 3.7875 0.340505 3.86948 -1.28773 -2.24715 9.44227e-016 3.18055e-015 -3.97569e-016 -84.6249 -27.168 -22.7476 -18.5104 16.2263 -24.6386 0.368473 9.90896 -0.00117926 4.24303 -0.363586 -6.48638 86.263 -32.6195 7.22502 19.0057 14.2402 12.7984 -0.369625 9.91382 0.00119887 -2.2865 -0.412555 2.04443 -1.61287 43.5595 18.6739 -12.6285 0.928692 0.521454 0.590674 7.44659 -0.363635 
22.3827 105.562 177.33 -2.35827 0.0700522 178.285 1.89289 -18.2815 2.0578 2.92092 25.0506 -17.9949 1.25734 -10.1331 -0.153554 0.636702 -0.861259 1.90414 0.50473 3.83876 -1.16684 -6.0512 3.97156 0.342459 3.90392 -1.67756 -1.973 5.46658e-016 0 -3.97569e-016 -84.2966 -27.6576 -21.3735 -18.6685 16.1817 -24.2412 0.368473 9.90896 -0.00117926 4.2603 -0.371125 -6.54333 86.532 -32.3822 7.81424 18.9535 14.3338 13.3617 -0.369625 9.91382 0.00119887 -1.4784 -2.40109 2.98207 -1.18604 47.0193 18.7999 -12.1247 2.28433 0.645974 0.758176 8.50411 -0.0915545 
22.7397 105.537 176.019 -2.08276 0.0188699 178.425 2.32082 -17.6185 2.4419 3.24717 25.363 -18.3444 1.36473 -10.9201 -0.142077 0.471601 -1.51891 1.66889 0.816481 3.84587 -1.18205 -5.87781 4.36382 0.367431 3.90498 -2.19061 -2.05073 4.96962e-016 0 -3.97569e-016 -84.112 -28.1396 -20.4126 -18.7325 16.0686 -23.5192 0.368473 9.90896 -0.00117926 4.36587 -0.388663 -6.6634 86.8906 -31.8605 8.59099 19.0133 14.4419 13.9819 -0.369625 9.91382 0.00119887 -0.905623 -4.4697 3.59813 -0.605016 50.376 19.6256 -11.8516 2.59991 0.663324 1.03678 8.93162 0.909063 
23.0736 105.496 174.749 -1.89492 -0.0494697 178.61 2.61675 -17.025 2.55548 3.529 25.7532 -18.4302 1.39266 -11.8348 -0.135736 0.210716 -1.92528 1.23727 1.04872 3.83429 -1.1978 -5.77979 4.75282 0.393982 3.92831 -2.68907 -2.25546 3.47873e-016 -3.18055e-015 1.19271e-015 -84.0566 -28.6821 -19.6354 -18.72 15.9114 -22.6087 0.368473 9.90896 -0.00117926 4.41967 -0.394554 -6.6982 87.2774 -31.235 9.43046 19.1058 14.5485 14.5889 -0.369625 9.91382 0.00119887 -0.514788 -6.58215 3.94157 -0.149614 53.3596 20.634 -11.6845 2.30774 0.619741 1.29054 8.88072 1.99922 
23.3542 105.484 173.5 -1.78685 -0.172826 178.739 2.7482 -16.474 2.21792 3.77893 26.1152 -18.0867 0.98555 -13.0013 -0.162958 -0.0236751 -1.32928 0.723338 1.12408 3.81654 -1.17303 -5.59736 4.90584 0.392888 3.98217 -2.9855 -2.38698 1.49089e-016 1.59028e-015 1.98785e-016 -84.1853 -29.4018 -18.8242 -18.6164 15.7312 -21.657 0.368473 9.90896 -0.00117926 4.20293 -0.356542 -6.43288 87.6851 -30.676 10.2553 19.141 14.6327 15.0721 -0.369625 9.91382 0.00119887 -0.321098 -8.66329 3.96758 0.0996416 55.6548 21.3012 -11.5012 1.68103 0.549509 1.39455 8.47386 2.5684 
23.6086 105.463 172.271 -1.74397 -0.309023 178.878 2.7825 -15.9529 1.69793 3.96195 26.4892 -17.6448 0.682579 -14.1371 -0.179099 -0.18371 -0.793651 0.338578 1.17404 3.79666 -1.15272 -5.47227 5.00583 0.391132 4.04641 -3.21675 -2.5385 -2.98177e-016 0 1.98785e-016 -84.404 -30.2431 -18.0957 -18.4567 15.5294 -20.6089 0.368473 9.90896 -0.00117926 3.87342 -0.307165 -6.09225 88.162 -30.0866 11.0917 19.1737 14.7058 15.4789 -0.369625 9.91382 0.00119887 -0.311445 -10.6865 3.70074 0.230701 57.3901 21.5573 -11.5241 0.544935 0.43107 1.4452 7.85571 2.95238 
23.855 105.403 171.051 -1.77358 -0.438528 179.059 2.72617 -15.4481 1.17211 4.03324 26.8786 -17.4179 1.12078 -14.98 -0.128137 -0.147485 -1.28071 0.480023 1.31237 3.78755 -1.17792 -5.53534 5.1519 0.408783 4.08246 -3.45864 -2.75045 6.21202e-016 1.59028e-015 -1.98785e-016 -84.6192 -31.2015 -17.5146 -18.3003 15.3115 -19.4105 0.368473 9.90896 -0.00117926 3.51028 -0.272679 -5.86609 88.7744 -29.3945 11.9231 19.2538 14.7726 15.8112 -0.369625 9.91382 0.00119887 -0.500802 -12.608 3.1319 0.287271 58.6175 20.9989 -12.0823 -1.38235 0.237765 1.46804 7.40865 3.13144 
24.0905 105.323 169.85 -1.80218 -0.531255 179.287 2.69045 -14.9405 0.724836 4.06683 27.2891 -17.3082 1.66294 -15.5931 -0.0696528 -0.105384 -2.3425 0.702458 1.5146 3.7752 -1.21935 -5.66072 5.36293 0.437509 4.14863 -3.70655 -2.98158 4.96962e-017 0 -3.97569e-016 -84.9073 -32.2392 -17.032 -18.0601 15.0862 -18.2038 0.368473 9.90896 -0.00117926 3.13323 -0.240024 -5.64464 89.4494 -28.6986 12.7958 19.3045 14.8312 16.0954 -0.369625 9.91382 0.00119887 -0.801798 -14.397 2.30529 0.315856 59.2303 20.1188 -12.7551 -3.50679 0.0188133 1.51179 6.5357 3.56736 
24.3196 105.228 168.68 -1.70221 -0.543608 179.625 2.85102 -14.441 0.539681 4.13083 27.7731 -17.2878 1.74144 -15.6773 -0.0641701 -0.388168 -4.59216 0.488403 1.84628 3.75007 -1.26199 -5.72843 5.71275 0.475379 4.3256 -4.00583 -3.20821 -3.23025e-016 -1.59028e-015 9.93923e-017 -85.3589 -33.3067 -16.6404 -17.6166 14.8658 -17.1146 0.368473 9.90896 -0.00117926 2.8291 -0.205775 -5.38857 90.1154 -28.1086 13.7579 19.2458 14.8827 16.3763 -0.369625 9.91382 0.00119887 -1.07446 -16.0121 1.22133 0.250088 59.1296 19.329 -13.148 -5.36331 -0.195296 1.76422 4.31868 5.09684 
24.5382 105.132 167.517 -1.64617 -0.496521 179.934 2.99999 -13.8506 0.490394 4.20081 28.1917 -17.4618 1.7736 -16.0567 -0.0556836 -0.494531 -5.80907 0.45104 2.15104 3.7116 -1.30413 -5.85243 6.13559 0.523363 4.50851 -4.28258 -3.41811 -1.36664e-016 3.18055e-015 9.93923e-017 -85.8429 -34.4299 -16.2795 -17.1445 14.6632 -16.1332 0.368473 9.90896 -0.00117926 2.47484 -0.167173 -5.07645 90.8496 -27.5132 14.792 19.1363 14.9216 16.5999 -0.369625 9.91382 0.00119887 -1.43407 -17.4312 0.00788549 0.0270876 58.3497 18.893 -13.4624 -6.84647 -0.376602 2.10866 2.11496 6.56393 
24.7458 105.054 166.341 -1.82128 -0.378202 -179.94 2.94311 -12.9976 0.542481 4.27277 28.3541 -18.1167 2.12066 -18.0653 0.0185254 0.340594 -2.19306 1.44483 2.23071 3.65134 -1.337 -6.14545 6.61652 0.585325 4.59269 -4.45213 -3.59326 1.92573e-016 -3.18055e-015 -4.96962e-017 -86.2644 -35.6548 -15.917 -16.7817 14.4973 -15.2963 0.368473 9.90896 -0.00117926 1.92366 -0.116751 -4.6475 91.7583 -26.8217 15.9222 18.9977 14.9392 16.7074 -0.369625 9.91382 0.00119887 -1.97621 -18.5921 -1.23605 -0.372151 56.86 19.2879 -13.8009 -7.62632 -0.479004 2.15608 1.37142 6.78636 
24.9364 104.99 165.156 -2.05361 -0.243362 -179.89 2.82418 -12.1072 0.607112 4.35395 28.4603 -18.6762 2.397 -19.8749 0.0816604 0.921109 0.902779 2.22772 2.27633 3.58349 -1.36682 -6.49113 7.07685 0.65065 4.66347 -4.59266 -3.72662 5.46658e-016 0 1.2424e-016 -86.5797 -36.8709 -15.4475 -16.5252 14.3646 -14.5878 0.368473 9.90896 -0.00117926 1.3326 -0.0651284 -4.18051 92.6572 -26.0865 17.0641 18.8622 14.9469 16.7577 -0.369625 9.91382 0.00119887 -2.52734 -19.5813 -2.39468 -0.795242 54.7844 20.0283 -14.0389 -7.91181 -0.521197 2.09928 0.850688 6.69103 
25.102 104.958 163.962 -2.21017 -0.140091 -179.852 2.74641 -11.3868 0.623716 4.4728 28.6826 -18.5498 2.23985 -19.4441 0.0525103 0.358044 -2.4853 1.51017 2.45735 3.52077 -1.4006 -6.80228 7.44117 0.711921 4.79173 -4.77337 -3.8008 -4.65902e-016 -1.59028e-015 -4.96962e-017 -86.7102 -37.9853 -14.7633 -16.4108 14.2615 -13.964 0.368473 9.90896 -0.00117926 0.82445 -0.0220664 -3.74466 93.3909 -25.3114 18.1501 18.7792 14.9517 16.78 -0.369625 9.91382 0.00119887 -2.90596 -20.4553 -3.37576 -1.20487 52.1833 20.9132 -14.0542 -7.74579 -0.49826 2.12672 -0.373868 6.92877 
